<svg xmlns="http://www.w3.org/2000/svg" viewBox="0 0 115.84 79.38" id="game"><g data-name="Layer 2"><path fill="#1a75ff" d="M105.13 14C89.3-12 65.45 6.12 65.45 6.12c-1.55 1.17-2.4 2.13-4.34 2.13h-6.38c-1.94 0-2.79-1-4.33-2.13 0 0-23.85-18.1-39.68 7.91S1.27 68.35 1.27 68.35c1.12 6.93 4.8 11.56 11.75 11S35 60.66 35 60.66A8.57 8.57 0 0 1 40.77 58h34.29a8.56 8.56 0 0 1 5.78 2.71s15 18.09 22 18.67 10.63-4 11.74-11C114.57 68.35 121 40 105.13 14Zm-59.6 21.21h-8.21v7.91a7.65 7.65 0 0 1-4.43 1.29A5.35 5.35 0 0 1 29 43v-7.79h-7.76A6.24 6.24 0 0 1 20 31.6a8.27 8.27 0 0 1 1.07-4.72h8.21v-8.21a8.93 8.93 0 0 1 4.12-.84 10.86 10.86 0 0 1 4.21 1v8.05h7.75a7.72 7.72 0 0 1 1.47 3.84 9.7 9.7 0 0 1-1.3 4.49Zm33.66 9a6.5 6.5 0 1 1 6.5-6.5 6.49 6.49 0 0 1-6.5 6.52Zm0-17.88a6.5 6.5 0 1 1 6.5-6.5 6.49 6.49 0 0 1-6.5 6.51Zm16.18 9.6a6.5 6.5 0 1 1 6.5-6.5 6.49 6.49 0 0 1-6.49 6.51Z" data-name="Layer 1"></path></g></svg>